<?xml version="1.0" encoding="UTF-8"?>
<svg fill="#FFFFFF" width="100pt" height="100pt" version="1.1" viewBox="0 0 100 100" xmlns="http://www.w3.org/2000/svg">
 <path d="m97.922 79.289l-39.051-67.617c-2.4414-4.2305-5.6523-6.3438-8.8711-6.3438s-6.4297 2.1094-8.8711 6.3398l-39 67.621c-4.9297 8.4609-0.92969 15.383 8.8711 15.383h78c9.8008 0 13.801-6.9219 8.9219-15.383zm-53-39.871l10.168 0.003906v23.656h-10.18v-23.656zm5.0898 39v0.003906c-2.2539 0-4.2852-1.3594-5.1484-3.4414s-0.38672-4.4766 1.207-6.0703c1.5938-1.5898 3.9883-2.0664 6.0703-1.207 2.082 0.86328 3.4375 2.8945 3.4375 5.1484 0.003906 1.4805-0.58203 2.8984-1.6289 3.9453s-2.4688 1.6367-3.9492 1.6328z"/>
</svg>
