<?xml version="1.0" encoding="UTF-8"?>
<svg fill="#FFFFFF" width="100pt" height="100pt" version="1.1" viewBox="0 0 100 100" xmlns="http://www.w3.org/2000/svg">
 <path d="m50 0c-13.262 0-25.98 5.2695-35.355 14.645s-14.645 22.094-14.645 35.355 5.2695 25.98 14.645 35.355 22.094 14.645 35.355 14.645 25.98-5.2695 35.355-14.645 14.645-22.094 14.645-35.355-5.2695-25.98-14.645-35.355-22.094-14.645-35.355-14.645zm18.43 64c0.95703 0.96484 0.95703 2.5156 0 3.4805l-0.92969 0.92969c-0.96484 0.95703-2.5156 0.95703-3.4805 0l-14-14-14 14c-0.96094 0.95703-2.5156 0.95703-3.4805 0l-0.92969-0.92969c-0.95703-0.96484-0.95703-2.5156 0-3.4805l14-14-14-14c-0.95703-0.96484-0.95703-2.5156 0-3.4805l0.92969-0.92969c0.96484-0.95703 2.5195-0.95703 3.4805 0l14 14 14-14c0.96484-0.95703 2.5156-0.95703 3.4805 0l0.92969 0.92969c0.95703 0.96484 0.95703 2.5156 0 3.4805l-14 14z"/>
</svg>
