<?xml version="1.0" encoding="UTF-8"?>
<svg fill="#FFFFFF" width="100pt" height="100pt" version="1.1" viewBox="0 0 100 100" xmlns="http://www.w3.org/2000/svg">
 <g>
  <path d="m56.672 76.559h-13.344v-33h13.344zm-6.6719-38.508c-2.957 0-5.6211-1.7812-6.7539-4.5117-1.1328-2.7344-0.50391-5.8789 1.5859-7.9688 2.0898-2.0898 5.2344-2.7148 7.9648-1.582 2.7305 1.1289 4.5117 3.7969 4.5117 6.75 0 1.9414-0.76953 3.8008-2.1406 5.1719-1.3711 1.3711-3.2305 2.1406-5.168 2.1406z"/>
  <path d="m85.359 14.641c-9.375-9.3789-22.094-14.645-35.355-14.645-13.262 0-25.977 5.2656-35.355 14.645-9.375 9.375-14.645 22.094-14.645 35.355 0 13.262 5.2695 25.977 14.645 35.355 9.3789 9.375 22.094 14.645 35.355 14.645 13.262 0 25.98-5.2695 35.355-14.645 9.418-9.3555 14.711-22.082 14.711-35.355 0-13.273-5.293-26-14.711-35.355zm-5.5312 65.188c-10.703 10.414-26.117 14.395-40.523 10.461-14.406-3.9297-25.664-15.188-29.594-29.594-3.9336-14.406 0.046874-29.82 10.461-40.523 7.9102-7.9141 18.645-12.359 29.832-12.359 11.191 0 21.922 4.4453 29.836 12.359 7.9102 7.9102 12.352 18.641 12.348 29.832 0 11.188-4.4453 21.914-12.359 29.824z"/>
  <path d="m57.309 30.738c0 4.0391-3.2695 7.3125-7.3086 7.3125s-7.3086-3.2734-7.3086-7.3125c0-4.0352 3.2695-7.3086 7.3086-7.3086s7.3086 3.2734 7.3086 7.3086"/>
  <path d="m43.328 43.57h13.352v32.988h-13.352z"/>
 </g>
</svg>
