<?xml version="1.0" encoding="UTF-8"?>
<svg fill="#FFFFFF" width="100pt" height="100pt" version="1.1" viewBox="0 0 100 100" xmlns="http://www.w3.org/2000/svg">
 <path d="m50 20c-16.668 0-30 13.332-30 30s13.332 30 30 30 30-13.332 30-30-13.332-30-30-30zm15.668 22.332l-18.332 20c-0.66797 0.66797-1.668 1-2.3359 1s-1.668-0.33203-2.332-1l-8.3359-9c-1.332-1.332-1-3.332 0.33203-4.668 1.332-1.332 3.332-1 4.668 0.33203l5.668 6.332 16-17.332c1.332-1.332 3.332-1.332 4.668-0.33203 1.332 1.0039 1.332 3.3359 0 4.668z"/>
</svg>
